<svg version="1.1" id="Layer_1" xmlns="http://www.w3.org/2000/svg" xmlns:xlink="http://www.w3.org/1999/xlink" x="0px" y="0px"
	 width="100%" viewBox="0 0 1024 1024" enable-background="new 0 0 1024 1024" xml:space="preserve">
<path fill="#000000" opacity="1.000000" stroke="none" 
	d="
M419.936218,370.923767 
	C440.036285,352.637482 459.873993,334.591156 479.717316,316.550964 
	C490.438293,306.804199 501.238220,297.142487 511.842377,287.270416 
	C514.270630,285.009827 515.773865,285.263184 518.056519,287.357147 
	C538.189819,305.825897 558.409241,324.200745 578.608643,342.597382 
	C592.278137,355.046875 605.904480,367.544739 619.669373,379.887939 
	C622.877014,382.764252 623.245850,385.021057 620.475525,388.603882 
	C609.154663,403.244873 607.515015,419.773102 613.008667,436.876099 
	C617.576843,451.097931 621.290649,465.210510 620.470947,480.377045 
	C620.190674,485.563019 618.604126,487.299194 613.749817,488.596100 
	C591.948975,494.420532 570.881348,502.201965 551.914246,514.758667 
	C537.086243,524.575134 524.445557,536.401611 517.778992,553.465942 
	C517.372620,554.506165 517.009399,555.709290 515.240051,556.242432 
	C514.560425,554.130493 513.933044,551.983948 513.182983,549.881104 
	C506.868744,532.178711 494.274750,519.494019 479.608856,508.674652 
	C459.952667,494.173889 437.737793,484.794281 414.672729,477.244049 
	C409.360229,475.505035 404.079285,473.669678 397.552734,471.462311 
	C403.361877,468.657043 408.009308,470.602631 412.341797,471.118896 
	C417.096893,471.685577 418.004150,470.322205 417.964233,465.975586 
	C417.771179,444.980621 417.851959,423.983215 417.804871,402.986755 
	C417.800446,401.023956 418.160492,398.973602 416.536102,396.510742 
	C408.572174,400.541046 400.159668,402.792267 390.473389,398.059540 
	C400.500183,388.825714 410.088196,379.996002 419.936218,370.923767 
M483.757904,450.500000 
	C483.740601,444.337006 483.713257,438.174042 483.708740,432.011047 
	C483.704193,425.809296 483.802795,425.691071 490.211823,425.686157 
	C506.869110,425.673401 523.528564,425.839813 540.182373,425.603210 
	C544.928467,425.535828 546.504700,426.907623 546.457703,431.793518 
	C546.236206,454.778229 546.356628,477.766510 546.419922,500.753326 
	C546.425110,502.641296 545.652100,504.775024 547.576904,506.516541 
	C548.150269,506.339966 548.845886,506.277588 549.367004,505.943176 
	C563.768250,496.701019 579.289429,489.936768 595.677612,485.148041 
	C599.120972,484.141907 599.747070,481.997620 599.734863,478.797272 
	C599.641541,454.311554 598.955933,429.795319 599.967468,405.351196 
	C600.527039,391.828918 597.141052,382.308502 586.332275,373.263733 
	C562.854187,353.617371 540.735291,332.343658 518.152222,311.635468 
	C515.794739,309.473694 514.286316,309.366119 511.961578,311.623718 
	C507.427979,316.026489 502.596954,320.122955 497.891968,324.349457 
	C476.336792,343.712494 454.788025,363.082672 433.218506,382.429657 
	C431.388672,384.070953 430.319855,385.878510 430.324829,388.471161 
	C430.377106,415.788849 430.386597,443.106781 430.297333,470.424286 
	C430.287354,473.474701 431.478760,474.845490 434.332672,475.679871 
	C449.958801,480.248199 464.230530,487.722748 477.949585,496.348022 
	C479.429108,497.278168 480.709503,498.849823 483.750305,497.985901 
	C483.750305,482.635712 483.750305,467.067841 483.757904,450.500000 
M494.370575,478.499786 
	C494.364319,487.329865 494.446777,496.161377 494.305084,504.989258 
	C494.253571,508.197693 495.126190,510.661804 497.457306,512.991211 
	C502.658600,518.188660 506.916290,524.119568 510.471222,530.605347 
	C512.499023,534.305115 513.464905,538.592651 516.700562,542.457764 
	C522.052673,533.237671 527.853088,524.947266 534.684937,517.422119 
	C535.641541,516.368469 535.557129,514.960876 535.486877,513.609314 
	C534.811951,500.625031 535.015747,487.649811 535.482605,474.656830 
	C535.865295,464.007019 535.573242,453.333954 535.647339,442.671631 
	C535.677551,438.320679 534.405212,435.900055 529.289612,436.086731 
	C519.805969,436.432892 510.295654,436.349701 500.805847,436.095245 
	C496.023468,435.967041 494.256409,437.816620 494.323242,442.513458 
	C494.489136,454.173401 494.373413,465.837402 494.370575,478.499786 
z"/>
<path fill="#000000" opacity="1.000000" stroke="none" 
	d="
M463.761353,574.373474 
	C431.124756,567.089417 398.548523,564.667297 365.606964,567.016357 
	C354.652924,567.797485 343.689362,568.411438 332.830811,570.191589 
	C331.234558,570.453308 329.516846,570.695557 327.385345,569.438232 
	C328.368317,565.164185 331.436066,561.769653 333.237457,557.810608 
	C336.640533,550.331604 341.347626,546.673218 350.546509,546.104797 
	C383.996948,544.037964 417.057953,545.080383 449.704163,553.201965 
	C455.487793,554.640747 461.281403,556.039368 467.146088,557.164612 
	C446.061859,547.487732 423.662506,542.909119 400.769135,540.105530 
	C377.823578,537.295532 354.883118,535.048706 332.312622,539.131653 
	C330.777771,536.552673 331.814728,535.292114 332.592773,534.092834 
	C343.107697,517.885742 352.697327,501.089447 363.777130,485.239532 
	C366.545441,481.279358 369.798981,478.705109 374.912018,478.984467 
	C379.484650,479.234283 380.353241,480.538147 377.977722,484.504517 
	C372.587494,493.504456 367.051422,502.417053 361.661926,511.417389 
	C359.882629,514.388794 357.844574,517.260315 356.867920,520.937683 
	C363.514526,524.652039 371.335327,524.479675 378.100616,527.567322 
	C378.614685,527.802002 379.529663,527.666260 380.030609,527.346252 
	C389.058868,521.578430 398.587585,524.774963 407.755249,526.262329 
	C435.608856,530.781311 462.063293,539.502014 486.226074,554.421143 
	C495.931824,560.413818 504.752594,567.428101 511.281036,576.977966 
	C512.028748,578.071716 512.919250,579.080322 513.833008,580.043518 
	C514.380981,580.621155 515.102661,581.033936 515.580200,581.395142 
	C517.423767,581.241638 518.085205,579.991211 518.868652,578.952393 
	C532.045288,561.481079 550.124268,550.788696 569.736267,542.262512 
	C573.404968,540.667542 577.177368,539.742798 579.497742,544.614258 
	C580.360901,546.426453 582.470276,545.742432 584.339844,546.526794 
	C577.980652,553.948242 567.903198,553.905457 559.736267,559.623108 
	C577.633911,553.694336 595.126465,550.616699 612.748108,548.397583 
	C635.270630,545.561401 657.844238,545.847351 680.515198,547.163391 
	C689.296753,547.673218 694.253235,550.719849 697.623047,558.355835 
	C699.533569,562.685120 702.789490,566.388611 704.738586,571.266174 
	C700.043701,572.136597 695.928772,570.643921 691.816284,570.079590 
	C653.886108,564.874817 616.138916,565.811340 578.485962,572.729675 
	C566.836975,574.869995 555.357971,577.539124 544.117310,581.249817 
	C542.072021,581.924988 539.933594,582.385132 538.982788,584.754700 
	C533.999084,597.175232 519.578369,599.088257 508.171509,596.474854 
	C501.080872,594.850403 495.378326,590.897156 492.055481,584.146057 
	C491.121277,582.247925 489.409668,581.779114 487.678375,581.176270 
	C479.969025,578.491760 472.155823,576.173767 463.761353,574.373474 
z"/>
<path fill="#000000" opacity="1.000000" stroke="none" 
	d="
M385.114868,354.169800 
	C387.169525,352.438263 388.889282,350.843872 390.794708,349.515839 
	C394.793579,346.728912 399.287323,346.819733 402.456879,350.380280 
	C404.239441,352.382782 406.171997,353.947144 408.677307,355.193756 
	C408.272888,356.199158 408.177002,357.149841 407.651459,357.636505 
	C400.595917,364.170746 394.246307,371.676880 384.955963,375.267883 
	C381.447662,376.623962 379.276031,378.914917 377.517609,382.158691 
	C368.719574,398.388428 369.343536,415.475220 372.870697,432.749451 
	C375.126495,443.797241 378.266235,454.615814 384.042877,465.308441 
	C385.257568,461.896942 384.123962,459.448242 383.644928,456.948181 
	C381.328003,444.856201 381.836365,433.069702 387.953552,422.052490 
	C389.262878,419.694336 390.482635,416.000946 393.697113,416.602631 
	C397.426453,417.300598 397.413635,421.477417 397.658783,424.452698 
	C397.897980,427.355225 397.540375,430.364838 392.975739,430.476196 
	C389.046997,430.572021 389.124298,434.299255 388.476929,437.167419 
	C394.087494,438.237976 396.997894,443.512390 395.727264,450.086792 
	C395.216370,452.730377 394.174103,455.210297 392.653442,457.422791 
	C387.583832,464.798920 388.453186,472.185486 392.619324,479.513184 
	C394.591461,482.981873 396.731567,486.373566 399.047089,489.620789 
	C400.196686,491.232941 400.589996,492.819489 400.622070,494.654449 
	C397.934814,496.191315 396.853729,494.090607 395.611450,492.693481 
	C390.486176,486.929138 386.778503,480.185638 382.710968,473.699188 
	C379.867065,469.164093 376.694550,464.941071 372.962280,461.076996 
	C369.125671,457.104950 364.794250,454.690460 359.246490,453.612122 
	C334.953094,448.890076 320.280640,434.004486 314.522064,410.108032 
	C313.622864,406.376801 315.251373,404.953491 319.817719,405.928162 
	C337.852600,409.777710 351.874664,419.200439 361.022369,435.556122 
	C364.455048,441.693695 365.747406,449.175781 372.056824,453.693848 
	C373.256836,452.155548 372.013367,450.780762 371.666779,449.561340 
	C367.028107,433.240204 364.049561,416.453766 357.851929,400.563660 
	C356.398132,396.836212 354.444153,393.786072 350.921448,391.774780 
	C344.786224,388.271790 339.736725,383.406036 334.653198,378.593445 
	C322.160614,366.766907 316.250702,351.894867 314.826324,335.067871 
	C314.425293,330.330322 314.765106,325.530060 314.765106,320.760834 
	C316.192780,320.004883 317.418884,320.722900 318.598145,321.231750 
	C336.570892,328.987091 349.423553,341.882935 354.894592,360.704437 
	C357.210205,368.670654 357.859344,377.289124 359.276306,385.610413 
	C360.062073,390.224884 361.061157,394.687225 363.563446,400.110565 
	C363.978180,394.731903 364.467163,390.548462 364.595398,386.354034 
	C365.142303,368.464355 368.418091,350.980988 372.550201,333.653015 
	C374.567352,325.194061 373.905914,318.025940 367.746490,311.011536 
	C354.509125,295.936737 354.172607,278.435791 360.192200,260.273468 
	C361.489166,256.360199 362.920380,252.445938 365.569885,248.299484 
	C374.176147,257.454834 377.197235,268.427734 379.292816,279.898376 
	C381.423523,291.561096 378.796753,303.015839 378.167206,314.627045 
	C386.668976,293.172821 398.958832,273.486542 406.089294,251.500061 
	C402.262177,258.139557 399.278137,265.195251 395.999542,272.284821 
	C391.272827,260.732300 391.652191,249.354507 396.409851,238.162384 
	C403.493073,221.499588 415.595215,209.895889 432.172089,202.655029 
	C434.544464,206.393433 433.284668,209.770905 433.272552,213.007675 
	C433.177277,238.518661 424.009583,259.733398 403.512329,275.566956 
	C398.643799,279.327728 397.212799,285.259338 394.617676,290.404877 
	C388.776276,301.987061 384.585846,314.214233 380.441498,327.246155 
	C388.069092,320.636780 393.359711,313.386505 397.931366,305.341003 
	C407.232513,288.972290 421.043793,278.770386 440.026489,275.592529 
	C446.732910,274.469788 453.301666,273.536194 460.254272,273.447479 
	C460.464203,277.289337 458.248718,279.624817 457.010468,282.212463 
	C446.218292,304.765808 427.928711,316.940765 403.338287,319.070007 
	C393.974548,319.880798 388.706055,325.299255 383.677490,331.781311 
	C376.381470,341.186279 373.514221,352.228302 372.344666,363.836548 
	C371.696075,370.273956 371.045258,376.711151 370.258118,384.509003 
	C374.074951,378.120056 377.143555,372.898102 378.824646,366.930786 
	C380.092529,362.430084 381.740356,358.057892 385.114868,354.169800 
z"/>
<path fill="#000000" opacity="1.000000" stroke="none" 
	d="
M699.064819,463.284576 
	C688.490540,466.589844 678.128174,467.337158 667.601379,465.560577 
	C664.471802,465.032410 661.774719,465.661591 659.149841,467.551636 
	C652.059814,472.656891 644.056335,475.993164 635.909668,478.981079 
	C634.569580,479.472626 633.162659,480.240326 631.166443,479.409180 
	C631.787964,474.349030 634.246216,469.783722 636.085693,465.138794 
	C638.423218,459.236053 639.587097,454.255310 633.103821,450.145050 
	C630.947510,448.777985 629.438782,446.303589 627.814392,444.196381 
	C611.129883,422.553711 619.481934,400.265076 637.154785,386.915039 
	C660.871765,368.999268 697.700134,370.767761 720.195679,390.290497 
	C741.571350,408.841370 738.768555,440.534607 714.356689,456.244141 
	C709.708069,459.235626 704.741821,461.558105 699.064819,463.284576 
M705.156433,425.627380 
	C707.508667,423.510895 708.387939,421.050598 706.784180,418.104431 
	C705.498108,415.742065 703.504761,414.352020 700.762024,414.441650 
	C698.014160,414.531464 696.150879,416.104431 694.981995,418.497528 
	C693.715210,421.090851 694.496582,423.399933 696.379700,425.294250 
	C698.834900,427.763916 701.663025,427.668182 705.156433,425.627380 
M657.451050,418.309998 
	C655.970764,415.210388 653.437866,413.908875 650.156372,414.547272 
	C647.523987,415.059387 645.787354,416.787781 645.347534,419.571808 
	C644.744568,423.388519 647.220337,426.476685 651.057434,426.704865 
	C655.446777,426.965912 657.672974,424.378632 657.451050,418.309998 
M678.873047,426.568756 
	C683.450562,423.405731 684.354614,418.926300 680.918579,416.007568 
	C678.701416,414.124268 676.171814,413.587219 673.607544,415.297607 
	C671.247314,416.871857 669.673828,419.077423 670.473572,422.026123 
	C671.506165,425.833405 674.341858,427.150085 678.873047,426.568756 
z"/>
<path fill="#000000" opacity="1.000000" stroke="none" 
	d="
M710.433838,332.379211 
	C710.516968,346.438965 707.296509,359.357758 702.580688,372.011475 
	C710.618408,301.320068 686.610535,244.497101 625.145752,208.213821 
	C563.930176,172.077652 502.510529,177.281525 444.142212,218.565842 
	C443.645874,216.567413 445.432587,215.846817 446.501251,214.906616 
	C471.980103,192.490738 501.242218,178.880737 535.315796,175.540726 
	C576.581787,171.495667 614.166199,181.406342 647.593811,205.397079 
	C683.644531,231.270416 704.276550,266.965363 709.987061,310.997314 
	C710.875916,317.851044 711.329773,324.923798 710.433838,332.379211 
z"/>
<path fill="#000000" opacity="1.000000" stroke="none" 
	d="
M718.629517,693.581787 
	C717.143799,697.383362 716.607605,700.705017 720.798279,703.546570 
	C715.247253,704.955688 710.606323,705.334534 705.928589,704.194641 
	C716.763977,691.802795 719.105530,675.753235 725.392822,661.545166 
	C727.906921,655.863586 730.191040,650.021240 730.726990,643.488831 
	C731.032227,639.768127 736.364502,639.490845 738.918457,636.835022 
	C741.728638,638.729492 742.129211,641.497314 743.040894,643.886536 
	C749.450012,660.682983 755.713684,677.535339 762.198975,694.302124 
	C763.627502,697.995300 764.552185,703.177063 770.204102,702.122253 
	C775.826782,701.072937 775.612610,695.969604 775.584412,691.680603 
	C775.490173,677.360901 774.999268,663.041809 775.055359,648.724121 
	C775.073120,644.194519 772.353149,641.911804 769.332336,639.492554 
	C774.623108,636.239380 782.854980,637.372925 786.470764,641.585083 
	C796.774902,653.588440 807.086426,665.585632 817.421814,677.562134 
	C818.151184,678.407349 818.785645,679.478638 820.177917,679.632690 
	C821.561096,678.468933 820.874817,676.869812 820.897522,675.478027 
	C821.030884,667.327026 821.094421,659.174744 821.154358,651.022644 
	C821.187256,646.553284 821.844421,641.846069 816.341919,639.064087 
	C821.854431,637.437622 826.769470,637.652954 833.597351,638.491882 
	C825.406677,642.802307 827.231323,649.127686 827.198730,654.859436 
	C827.110596,670.353577 827.152100,685.848389 827.078064,701.342651 
	C827.069763,703.076904 827.731079,705.424377 825.555603,706.199890 
	C823.194275,707.041565 822.110840,704.789490 820.823608,703.312927 
	C808.675476,689.377686 796.528748,675.441284 784.365723,661.518982 
	C783.718262,660.777893 782.929199,660.160461 781.907471,659.206726 
	C780.568420,661.074036 780.411133,663.047791 780.564514,664.908142 
	C781.332947,674.228333 780.917847,683.559265 780.937744,692.883850 
	C780.946960,697.205200 781.167847,701.246582 786.197021,703.463440 
	C772.591980,706.206238 759.178589,703.194397 745.255188,704.825012 
	C748.019287,699.312866 745.782471,685.905273 742.288391,682.451660 
	C741.520325,681.692444 740.609802,681.415588 739.582581,681.395569 
	C738.416687,681.372864 737.250305,681.362854 736.084167,681.360596 
	C723.182068,681.335327 723.182068,681.336060 718.629517,693.581787 
M726.135742,676.143799 
	C730.491028,677.258362 734.801086,677.043823 739.488892,676.202393 
	C738.098999,669.224060 735.400574,663.401367 732.606445,656.232239 
	C729.813538,663.563293 727.134094,669.282898 726.135742,676.143799 
z"/>
<path fill="#000000" opacity="1.000000" stroke="none" 
	d="
M394.738098,652.697998 
	C394.108856,653.911926 393.804230,654.923828 393.184662,655.676575 
	C383.385864,667.580627 382.395325,681.548218 383.205688,696.124878 
	C383.400635,699.631470 385.324066,701.424927 387.312164,704.244324 
	C379.504822,703.947510 371.822388,704.619202 363.880676,704.112488 
	C368.897583,701.495361 368.485413,697.182495 369.004822,692.824463 
	C370.520905,680.103821 367.329468,668.928345 359.764099,658.706848 
	C357.409546,655.525696 355.917145,651.716309 353.906647,648.266479 
	C352.825226,646.410828 351.682800,644.513611 350.204895,642.986450 
	C348.487885,641.212097 346.516357,639.507446 343.613190,640.857849 
	C340.936676,642.102783 340.258698,644.296326 340.266846,646.991516 
	C340.298584,657.483398 340.457031,667.979065 340.236877,678.466431 
	C340.034058,688.128540 337.926483,697.357117 328.678284,702.423279 
	C318.224335,708.150085 307.462769,707.267029 297.271454,701.357300 
	C289.087708,696.611816 288.237823,688.190613 287.884796,679.977173 
	C287.491791,670.833008 287.785004,661.660400 287.718048,652.500610 
	C287.681305,647.477356 289.105225,641.893921 282.428558,638.866943 
	C290.652130,637.721985 298.353821,637.640564 306.561554,638.607849 
	C300.855713,642.575745 302.105743,648.117432 302.114075,653.293579 
	C302.130402,663.451904 302.019806,673.614929 302.296692,683.766907 
	C302.572937,693.895203 307.539124,698.754517 317.448151,699.217285 
	C326.704559,699.649597 332.659027,694.460571 333.841888,684.810486 
	C335.430603,671.849182 334.332764,658.877258 333.918396,645.907104 
	C333.821289,642.868713 331.759735,641.230530 329.466858,639.676453 
	C333.143311,637.245667 364.053009,637.080322 369.445618,639.394226 
	C366.039062,642.867676 368.133148,645.882568 370.047729,649.115662 
	C373.584961,655.088684 376.474365,661.449646 381.022095,667.605103 
	C384.676422,660.962463 388.248291,654.832458 391.447876,648.513916 
	C393.283691,644.888611 393.011688,644.750854 389.397583,638.615967 
	C394.910370,637.421814 400.117432,637.874695 405.728119,638.893616 
	C400.053070,642.052979 397.643524,647.338013 394.738098,652.697998 
z"/>
<path fill="#000000" opacity="1.000000" stroke="none" 
	d="
M498.512939,674.715027 
	C498.290497,680.945374 498.359283,686.773560 498.127045,692.589661 
	C497.940735,697.256165 498.025146,701.619812 503.233826,704.263916 
	C495.589661,704.263916 487.945496,704.263916 478.566406,704.263916 
	C484.928741,700.380859 483.960297,695.275757 483.963623,690.461853 
	C483.972778,677.145264 483.876404,663.828308 483.962219,650.512390 
	C483.990631,646.104553 484.121185,641.818848 479.485138,638.881592 
	C487.096710,637.424927 494.443115,637.418823 502.924011,638.714355 
	C495.685883,644.448547 498.432373,651.543335 498.245514,657.880981 
	C497.924591,668.765381 496.814575,668.019104 508.369324,668.001343 
	C512.863647,667.994446 517.358093,667.973022 521.852173,668.004211 
	C523.989990,668.018982 525.313293,667.454041 525.250061,664.899658 
	C525.089783,658.421082 525.032654,651.937561 525.086182,645.457336 
	C525.105530,643.114197 523.505005,641.517029 522.547302,638.807312 
	C529.614075,637.111755 536.388611,637.520386 545.093262,638.722656 
	C538.029907,642.974548 539.362732,648.556519 539.348083,653.742920 
	C539.309448,667.392578 539.417725,681.043091 539.292297,694.691711 
	C539.255493,698.701721 539.767578,702.083984 544.171082,704.097168 
	C536.849792,704.097168 529.528503,704.097168 520.923340,704.097168 
	C525.500549,700.351440 525.045898,696.136536 525.077087,692.028564 
	C525.112488,687.368896 525.159119,682.708679 525.272034,678.050476 
	C525.355713,674.598328 524.074768,672.618713 520.300720,673.015137 
	C513.111572,673.770325 505.754639,671.723755 498.512939,674.715027 
z"/>
<path fill="#000000" opacity="1.000000" stroke="none" 
	d="
M255.787247,674.141174 
	C247.902588,672.399719 240.246719,673.308228 232.619034,673.224121 
	C230.295990,673.198486 229.403412,674.709839 229.394928,676.814697 
	C229.367401,683.645142 229.362167,690.475891 229.390854,697.306335 
	C229.403793,700.387451 231.735474,701.826416 233.889404,704.058594 
	C226.190155,704.058594 218.490921,704.058594 209.128922,704.058594 
	C215.148071,701.104187 215.114349,696.825439 215.096497,692.468262 
	C215.038528,678.309082 215.002075,664.149231 215.087646,649.990479 
	C215.113495,645.710754 215.139481,641.607361 210.393250,638.982239 
	C218.381546,637.260132 226.148422,637.593506 234.854904,638.260742 
	C225.361893,646.547974 230.636505,656.566101 229.534622,665.495361 
	C229.266678,667.666870 231.492172,667.894226 233.188934,667.905212 
	C239.686264,667.947327 246.184189,667.894836 252.681549,667.935303 
	C255.732910,667.954285 256.722717,666.354309 256.681396,663.519958 
	C256.596405,657.689697 256.446014,651.847229 256.731140,646.029785 
	C256.898010,642.625305 253.924332,641.450317 251.761368,638.526978 
	C260.161926,637.250610 267.631134,637.869751 276.862000,637.938477 
	C267.394318,644.282104 270.888336,652.484375 270.720642,659.871277 
	C270.479004,670.514893 270.543518,681.165039 270.358185,691.810303 
	C270.275452,696.562683 269.914368,701.304932 275.734558,703.849426 
	C267.478516,704.592590 259.584839,703.943359 251.120422,704.209778 
	C257.767273,700.987488 256.752319,695.451294 256.639252,690.367798 
	C256.521271,685.062805 257.281097,679.720459 255.787247,674.141174 
z"/>
<path fill="#000000" opacity="1.000000" stroke="none" 
	d="
M604.879761,284.126923 
	C617.737976,295.241425 631.396729,295.897095 645.950073,288.137268 
	C644.445618,298.606903 624.999329,309.380402 611.685791,307.733856 
	C587.760010,304.774780 573.620789,286.648193 575.003479,267.271851 
	C576.226257,250.136673 593.385986,233.843231 608.366028,235.390976 
	C598.859863,243.552521 593.899597,253.298721 595.441528,265.470123 
	C596.344238,272.595520 599.357849,278.843597 604.879761,284.126923 
z"/>
<path fill="#000000" opacity="1.000000" stroke="none" 
	d="
M438.488007,678.501099 
	C432.635712,671.913513 427.020660,665.588257 421.405640,659.263000 
	C420.953552,659.381104 420.501434,659.499207 420.049347,659.617310 
	C421.773865,674.203552 417.397430,689.173462 423.133118,704.197205 
	C419.168335,705.162720 414.452759,705.424561 408.315826,704.001099 
	C415.322693,700.303040 414.168427,694.462280 414.295959,689.389099 
	C414.629913,676.102966 414.474915,662.804138 414.483368,649.510376 
	C414.486206,645.017029 412.480072,641.600464 407.972626,639.562988 
	C415.077057,636.076416 422.330536,637.328003 426.600159,642.351257 
	C436.840332,654.398682 447.058167,666.465149 457.291321,678.518555 
	C458.019775,679.376587 458.799835,680.190735 459.950531,681.460938 
	C461.270721,669.087036 460.410645,657.369385 459.932526,645.646545 
	C459.808319,642.601379 457.335205,641.261963 454.790161,638.714661 
	C460.794647,637.641174 465.712708,637.615112 472.571716,638.454102 
	C463.892639,643.766174 466.312347,651.053284 466.202698,657.523804 
	C465.954468,672.171509 466.168732,686.826721 466.141998,701.478760 
	C466.138855,703.206726 466.901489,705.494812 464.638702,706.293152 
	C462.546783,707.031250 461.345062,705.167419 460.164246,703.792847 
	C453.005768,695.460144 445.869202,687.108643 438.488007,678.501099 
z"/>
<path fill="#000000" opacity="1.000000" stroke="none" 
	d="
M615.403931,689.580994 
	C606.332703,679.192566 597.494141,669.071594 588.655579,658.950562 
	C588.220398,659.071899 587.785217,659.193237 587.350037,659.314575 
	C587.350037,662.034790 587.344788,664.754944 587.351074,667.475159 
	C587.370300,675.797974 587.282532,684.123291 587.463318,692.442627 
	C587.552429,696.542480 587.501648,700.877808 593.180298,704.006775 
	C587.105713,704.426575 582.537109,705.576233 576.793030,703.726685 
	C582.288025,700.548767 581.725952,695.916077 581.736938,691.478699 
	C581.768127,678.827942 581.780396,666.177185 581.795654,653.526428 
	C581.802063,648.236328 582.677368,642.640869 576.221313,639.768311 
	C581.571350,636.476440 589.385864,637.342285 592.931885,641.396729 
	C603.772339,653.791443 614.522339,666.265320 625.281433,678.730896 
	C625.811035,679.344543 626.094360,680.170715 626.492371,680.897888 
	C626.903870,680.679993 627.315430,680.462097 627.726929,680.244202 
	C627.726929,668.520569 627.697998,656.796875 627.745544,645.073425 
	C627.758850,641.780945 624.019653,641.576965 622.679504,638.453857 
	C627.984741,637.758850 632.860779,637.379028 639.455017,639.376160 
	C632.090454,642.377441 633.335632,647.732178 633.324646,652.623657 
	C633.287903,668.937317 633.332520,685.251221 633.258179,701.564636 
	C633.250610,703.223938 634.183716,705.583801 631.748230,706.285034 
	C629.848083,706.832153 628.884644,704.961792 627.808289,703.739685 
	C623.739258,699.119690 619.692017,694.480408 615.403931,689.580994 
z"/>
<path fill="#000000" opacity="1.000000" stroke="none" 
	d="
M644.507568,677.294800 
	C641.245422,651.333008 661.118103,633.036377 687.863831,636.888489 
	C700.919739,638.768921 703.866272,643.184875 700.650879,656.119019 
	C700.547424,656.535217 700.045532,656.852295 699.698059,657.251526 
	C697.275818,656.447937 697.448853,654.109253 696.698547,652.394592 
	C694.181213,646.642395 690.815491,641.896790 683.926697,641.146362 
	C676.214905,640.306152 669.730408,642.365356 665.337891,649.187256 
	C659.350342,658.486267 659.732422,668.818298 660.761536,679.158997 
	C661.187378,683.437988 662.078918,687.704834 664.130188,691.617737 
	C666.611877,696.351807 669.961304,700.067078 675.166199,701.899048 
	C684.018677,705.014771 688.668762,701.900879 688.771301,692.693970 
	C688.892395,681.816833 688.892395,681.816833 684.352905,676.595032 
	C691.910706,676.551636 698.702393,675.636230 706.530334,676.510742 
	C700.817505,682.895874 702.703552,689.874268 702.512939,696.499207 
	C702.447876,698.759216 702.542908,700.949341 700.081238,701.985413 
	C686.601929,707.658936 673.119690,709.253235 659.768066,701.643188 
	C650.510986,696.366760 645.933350,688.049194 644.507568,677.294800 
z"/>
<path fill="#000000" opacity="1.000000" stroke="none" 
	d="
M500.704376,547.925659 
	C501.002380,548.496521 501.189209,548.793518 501.240387,549.112244 
	C501.288483,549.411682 501.193237,549.734070 501.042603,551.196838 
	C469.864288,522.727844 431.273315,511.820251 391.081604,502.467224 
	C411.726868,488.681244 477.083344,516.511963 500.704376,547.925659 
z"/>
<path fill="#000000" opacity="1.000000" stroke="none" 
	d="
M603.671753,505.539917 
	C618.403931,502.400208 632.815979,500.883118 648.546753,502.353241 
	C646.218811,504.929230 644.095154,504.915649 642.103455,505.314117 
	C614.136292,510.909241 586.505371,517.556213 561.127258,531.247864 
	C550.535950,536.961914 540.474487,543.402405 531.871399,551.933655 
	C531.030212,552.767883 530.402588,554.247559 527.869568,553.665161 
	C546.916382,527.450439 572.723206,512.881714 603.671753,505.539917 
z"/>
<path fill="#000000" opacity="1.000000" stroke="none" 
	d="
M396.677063,745.593750 
	C396.673218,743.705017 396.673218,742.243103 396.673218,739.903564 
	C407.177612,742.409912 409.594452,752.914368 417.070160,758.233337 
	C418.812744,753.943481 417.468567,749.803467 417.823059,745.803650 
	C418.031219,743.455017 417.799164,740.939392 421.221832,740.779236 
	C424.299164,740.635254 424.839630,742.711670 424.816772,745.026550 
	C424.712830,755.564697 423.314087,766.139160 426.391418,776.982361 
	C416.777679,770.582336 410.789581,761.638000 403.239899,752.229919 
	C403.239899,758.432495 403.233704,763.203308 403.242462,767.974060 
	C403.246948,770.400208 402.703949,772.275757 399.674957,772.207886 
	C396.704529,772.141296 396.730743,770.054810 396.721008,768.013672 
	C396.686005,760.682739 396.691040,753.351562 396.677063,745.593750 
z"/>
<path fill="#000000" opacity="1.000000" stroke="none" 
	d="
M670.897339,514.007019 
	C666.487122,507.774933 662.140076,501.873810 659.053650,495.201904 
	C657.714172,492.306366 657.550781,489.896759 660.431824,487.258575 
	C663.821716,484.154358 665.870667,484.903229 667.951477,488.224579 
	C672.362793,495.265869 677.140442,502.118866 681.005066,509.451202 
	C686.067932,519.057007 693.772583,526.899048 698.487854,536.680603 
	C699.050049,537.846802 699.635376,539.001831 700.366821,540.478943 
	C696.245911,542.010132 692.617126,540.281738 689.010559,539.824524 
	C686.784790,539.542358 686.877625,537.452698 687.812988,535.870483 
	C689.299805,533.355591 688.473328,531.811401 686.527161,529.866577 
	C682.868591,526.210510 683.303894,520.650452 680.945374,516.293579 
	C679.609619,513.826172 678.920227,510.954315 675.864624,510.587433 
	C673.314758,510.964935 674.684937,515.513977 670.897339,514.007019 
z"/>
<path fill="#000000" opacity="1.000000" stroke="none" 
	d="
M637.578857,767.576660 
	C627.151794,775.436401 615.077820,773.226624 610.306824,762.902405 
	C607.100586,755.964478 609.161316,747.863586 615.299805,743.273987 
	C621.474182,738.657532 630.596375,739.014954 636.590088,744.108154 
	C642.452759,749.090088 643.905579,757.234924 640.092834,764.017395 
	C639.444031,765.171570 638.595398,766.213379 637.578857,767.576660 
M635.133728,754.967346 
	C635.006104,754.316956 634.946594,753.644104 634.740234,753.019775 
	C633.066895,747.959167 628.734680,745.407043 623.502075,746.369202 
	C619.140747,747.171143 615.148865,752.206116 615.513672,756.444824 
	C616.017578,762.300415 619.442200,765.741882 624.993408,765.971191 
	C630.947632,766.217102 634.075806,763.085266 635.133728,754.967346 
z"/>
<path fill="#000000" opacity="1.000000" stroke="none" 
	d="
M571.952148,755.999878 
	C571.952393,753.342957 571.949219,751.183044 571.954895,749.023193 
	C571.977783,740.317627 571.979309,740.250549 580.744507,740.316101 
	C583.552856,740.337097 586.406006,740.579773 589.152405,741.142212 
	C592.914673,741.912720 596.166504,743.829712 597.031799,747.864502 
	C597.946472,752.129822 597.301147,756.166870 593.365540,758.982300 
	C592.844849,759.354797 592.404663,759.839783 591.853821,760.339111 
	C592.626770,764.548523 596.615540,767.187317 597.186157,771.515137 
	C593.334961,773.194275 590.615601,772.277771 588.749023,768.739746 
	C588.284302,767.858887 587.795288,766.985962 587.248779,766.154419 
	C585.731628,763.845764 584.674866,760.792236 581.036011,761.380554 
	C576.956421,762.040161 578.666748,765.479675 578.228271,767.811890 
	C577.864624,769.745667 577.397827,771.599060 575.122253,771.649719 
	C572.412537,771.709961 572.020691,769.526062 571.969604,767.460571 
	C571.879333,763.808105 571.949646,760.151733 571.952148,755.999878 
M579.488892,746.872986 
	C577.738647,749.448547 577.408813,752.634399 579.286743,754.677002 
	C581.258423,756.821655 584.572266,755.906860 587.263306,755.057129 
	C589.087341,754.481262 590.460327,753.157166 590.534302,751.092957 
	C590.617981,748.755859 589.046509,747.454163 587.083374,746.747192 
	C584.854492,745.944458 582.510071,746.210205 579.488892,746.872986 
z"/>
<path fill="#000000" opacity="1.000000" stroke="none" 
	d="
M445.280640,746.100769 
	C445.610626,748.563538 444.216553,751.508362 446.744110,752.358948 
	C450.175842,753.513794 453.974731,753.454651 457.519562,752.368164 
	C458.987152,751.918457 458.746307,750.172913 458.814209,748.864746 
	C458.908936,747.040222 458.830719,745.197937 459.052429,743.390991 
	C459.340973,741.039673 461.090820,740.616516 463.101837,740.722717 
	C465.123169,740.829529 465.401733,742.155029 465.427277,743.828125 
	C465.549042,751.801147 465.758850,759.772827 465.869751,767.745972 
	C465.899902,769.913513 466.023926,772.184631 462.738739,772.291992 
	C459.453156,772.399353 458.815735,770.502136 458.880890,767.849487 
	C458.889069,767.517212 458.878113,767.184265 458.870789,766.851746 
	C458.713715,759.742554 453.992401,756.739746 447.317261,759.433533 
	C445.573059,760.137390 445.352997,761.504028 445.315796,763.051819 
	C445.263885,765.212341 445.265656,767.374939 445.170166,769.533325 
	C445.089386,771.359497 443.995239,772.148743 442.230865,772.198975 
	C440.556976,772.246582 439.007385,771.798645 438.987061,769.924194 
	C438.893402,761.283875 438.887970,752.640747 439.020599,744.001282 
	C439.050079,742.082153 440.588593,741.055359 442.496155,741.196899 
	C445.319275,741.406311 445.165894,743.654968 445.280640,746.100769 
z"/>
<path fill="#000000" opacity="1.000000" stroke="none" 
	d="
M497.931732,744.037964 
	C502.346680,754.701843 506.716156,764.959900 511.330811,775.240173 
	C507.793579,772.234924 502.455933,772.467529 500.407410,767.120728 
	C498.948242,763.312195 487.273163,764.743225 485.488281,768.762329 
	C483.912872,772.309692 481.685242,773.008667 478.266113,771.589783 
	C477.677155,768.496399 479.508057,766.146240 480.576782,763.615479 
	C483.232330,757.327087 485.967529,751.072205 488.690216,744.812378 
	C490.968170,739.574890 494.168549,739.183716 497.931732,744.037964 
M490.203186,757.269470 
	C491.007904,762.347168 494.155426,758.646545 496.411285,759.346741 
	C496.713989,755.807922 495.354370,753.493896 493.181671,750.904846 
	C492.098297,753.153076 491.257385,754.898193 490.203186,757.269470 
z"/>
<path fill="#000000" opacity="1.000000" stroke="none" 
	d="
M355.210449,756.061035 
	C331.463989,758.870544 308.309875,756.266479 285.122131,754.576111 
	C312.676697,751.726379 340.218842,750.173523 367.827576,754.654175 
	C364.019623,757.002808 359.710236,755.483032 355.210449,756.061035 
z"/>
<path fill="#000000" opacity="1.000000" stroke="none" 
	d="
M515.840820,226.386780 
	C519.456116,225.524750 522.822510,224.701935 524.591919,221.549301 
	C526.167175,218.742523 527.245605,215.656937 529.286499,212.236664 
	C531.322083,221.495377 536.791077,226.594452 546.568115,227.861450 
	C536.809387,230.120331 531.361084,235.975937 530.054138,245.183823 
	C528.219666,244.764053 527.977051,243.933319 527.815430,243.133209 
	C526.424805,236.251053 522.836670,231.338333 515.804260,229.333527 
	C513.788391,228.758820 512.387146,227.790283 515.840820,226.386780 
z"/>
<path fill="#000000" opacity="1.000000" stroke="none" 
	d="
M544.757263,753.171143 
	C545.369385,748.280212 544.202820,745.539551 538.983704,746.205688 
	C537.445557,746.401978 535.956665,745.897278 535.840637,743.855957 
	C535.718323,741.702087 536.951843,740.785583 538.873230,740.771301 
	C545.199280,740.724121 551.526123,740.744080 557.852356,740.786682 
	C559.567017,740.798279 560.769958,741.656860 560.837219,743.467957 
	C560.919922,745.693054 559.346069,746.471008 557.538330,746.212158 
	C551.549927,745.354919 551.095520,748.882812 551.294861,753.432007 
	C551.520081,758.570801 551.310730,763.727112 551.429443,768.872620 
	C551.480896,771.102722 550.889587,772.342957 548.401611,772.307678 
	C546.183594,772.276123 544.872986,771.420349 544.845276,769.131409 
	C544.782837,763.969788 544.783142,758.807434 544.757263,753.171143 
z"/>
<path fill="#000000" opacity="1.000000" stroke="none" 
	d="
M662.586670,327.423889 
	C665.143921,330.611237 668.978821,330.627899 672.340637,332.342163 
	C669.921875,335.044861 666.345764,334.747009 663.997131,336.926910 
	C661.516235,339.229492 661.732422,342.763458 658.938293,345.852142 
	C657.364929,339.762695 654.278503,335.311462 646.863159,333.017548 
	C653.254272,330.024658 657.461731,326.839630 658.258850,320.646973 
	C658.640259,320.818726 659.021729,320.990479 659.403137,321.162231 
	C660.388367,323.156586 661.373596,325.150909 662.586670,327.423889 
z"/>
<path fill="#000000" opacity="1.000000" stroke="none" 
	d="
M600.078735,531.924561 
	C604.285583,531.592041 607.898682,528.981934 612.066956,531.516235 
	C602.710266,537.599609 592.879089,542.012390 581.064941,540.423950 
	C583.045471,536.664978 585.486938,535.580750 600.078735,531.924561 
z"/>
<path fill="#000000" opacity="1.000000" stroke="none" 
	d="
M737.144043,619.155640 
	C743.597656,622.332825 747.277527,628.109558 752.264832,632.601685 
	C748.300171,633.291626 745.148682,631.930542 742.424133,629.751343 
	C738.913513,626.943359 735.711182,626.702148 732.136536,629.668091 
	C729.846619,631.568054 727.167358,632.953979 723.217102,631.883850 
	C727.683838,627.115967 731.734558,622.656921 737.144043,619.155640 
z"/>
<path fill="#000000" opacity="1.000000" stroke="none" 
	d="
M373.981140,628.019287 
	C373.456238,627.551697 373.165894,627.360107 372.973694,627.096802 
	C371.530731,625.120117 368.012939,623.263550 370.817413,620.588806 
	C373.187744,618.328064 376.397766,619.866272 378.345032,622.048645 
	C380.988312,625.011047 384.208862,627.781250 384.969391,632.531433 
	C380.399689,632.648926 377.357910,630.384583 373.981140,628.019287 
z"/>
<path fill="#000000" opacity="1.000000" stroke="none" 
	d="
M670.281494,756.688660 
	C668.357605,756.495667 666.736938,756.115234 666.756042,754.241089 
	C666.775818,752.291992 668.524536,751.989563 670.008301,751.996765 
	C673.343628,752.012878 676.892029,751.270447 680.027893,754.152527 
	C677.180908,756.888855 673.640564,755.804321 670.281494,756.688660 
z"/>
<path fill="#000000" opacity="1.000000" stroke="none" 
	d="
M635.125854,262.809845 
	C632.556580,261.701111 631.227905,260.133850 632.410339,257.668213 
	C633.216553,255.987015 634.845642,255.545959 636.625671,256.056000 
	C638.017700,256.454895 638.918701,257.460754 639.013306,258.882080 
	C639.174133,261.297516 637.642700,262.390503 635.125854,262.809845 
z"/>
<path fill="#000000" opacity="1.000000" stroke="none" 
	d="
M482.140808,249.482864 
	C479.527557,250.748337 477.915222,249.887451 477.029083,247.726562 
	C476.384949,246.155869 477.041809,244.795242 478.389191,243.819321 
	C479.806763,242.792542 481.265411,242.945251 482.489807,244.070282 
	C484.311218,245.743927 484.179840,247.530838 482.140808,249.482864 
z"/>
<path fill="#000000" opacity="1.000000" stroke="none" 
	d="
M609.583984,331.332764 
	C613.080017,331.072266 614.562073,332.584808 613.997742,335.717407 
	C613.743286,337.129639 612.607056,337.923096 611.154053,338.073303 
	C609.671753,338.226562 608.551941,337.543365 607.928955,336.253784 
	C607.005188,334.341339 607.548096,332.738434 609.583984,331.332764 
z"/>
<path fill="#000000" opacity="1.000000" stroke="none" 
	d="
M548.462891,271.011536 
	C549.857971,272.342926 550.980530,273.526642 552.189270,274.801270 
	C551.781738,276.848907 549.659424,277.222656 548.808167,278.625488 
	C546.277588,278.243134 545.552185,276.247040 543.875916,274.938477 
	C545.477600,273.362732 545.963074,271.261993 548.462891,271.011536 
z"/>
<path fill="#000000" opacity="1.000000" stroke="none" 
	d="
M488.719208,735.216675 
	C487.768402,732.963623 488.739685,732.101440 490.502502,731.957520 
	C492.624908,731.784241 493.762390,733.100586 494.420013,734.935425 
	C494.769104,735.909424 494.885040,736.981140 493.827972,737.510803 
	C491.528717,738.662964 490.235992,736.992065 488.719208,735.216675 
z"/>
<path fill="#000000" opacity="1.000000" stroke="none" 
	d="
M626.841309,779.017456 
	C624.669556,780.289978 623.418274,779.799927 623.298096,777.554016 
	C623.230469,776.290100 624.097900,775.241333 625.376709,775.358582 
	C627.506409,775.553711 628.078918,776.850647 626.841309,779.017456 
z"/>
<path fill="#000000" opacity="1.000000" stroke="none" 
	d="
M516.725098,368.067871 
	C516.844360,360.750244 516.845520,360.660522 523.620911,360.748260 
	C536.934021,360.920593 536.127625,358.083405 536.220886,373.626587 
	C536.248474,378.227692 534.363586,379.973633 530.085938,379.785126 
	C528.430969,379.712219 526.781799,379.479492 525.126892,379.435211 
	C516.726257,379.210449 516.725891,379.223755 516.722656,370.541809 
	C516.722412,369.878204 516.724060,369.214569 516.725098,368.067871 
z"/>
<path fill="#000000" opacity="1.000000" stroke="none" 
	d="
M510.632263,379.199066 
	C506.040619,379.393372 501.887878,379.330017 497.766296,379.658203 
	C494.658386,379.905609 493.541687,378.674255 493.616211,375.722931 
	C493.708191,372.079712 493.693237,368.431335 493.619751,364.787262 
	C493.566956,362.168579 494.515381,360.725494 497.347687,360.772278 
	C501.323090,360.837982 505.300934,360.745758 509.277466,360.766418 
	C510.635132,360.773468 512.393555,360.985565 512.464355,362.506378 
	C512.723755,368.080353 514.890747,373.865845 510.632263,379.199066 
z"/>
<path fill="#000000" opacity="1.000000" stroke="none" 
	d="
M493.623779,393.004761 
	C493.645294,383.698761 493.645294,383.698761 502.585388,383.699158 
	C513.144348,383.699615 513.146240,383.699646 513.051941,394.196442 
	C513.037048,395.852753 513.053101,397.512207 512.953796,399.164154 
	C512.825012,401.306580 511.773407,402.499939 509.467285,402.422974 
	C507.149506,402.345581 504.827637,402.384766 502.507538,402.384247 
	C493.669952,402.382233 493.669952,402.383911 493.623779,393.004761 
z"/>
<path fill="#000000" opacity="1.000000" stroke="none" 
	d="
M536.160645,390.132935 
	C536.036011,404.219025 537.698242,402.262543 524.164246,402.364807 
	C516.782898,402.420593 516.750916,402.327454 516.765076,394.991150 
	C516.790649,381.720367 515.528015,383.932404 528.217957,383.726410 
	C535.748169,383.604187 535.749451,383.682068 536.160645,390.132935 
z"/>
</svg>